<svg xmlns="http://www.w3.org/2000/svg" width="16.46" height="20.278" viewBox="0 0 16.46 20.278">
  <g id="approve" transform="translate(-48.2)">
    <path id="Path_1221" data-name="Path 1221" d="M336.264,13.53h3.746l-4.743-4.743v3.746A1,1,0,0,0,336.264,13.53Z" transform="translate(-275.697 -8.439)" fill="#fff"/>
    <path id="Path_1222" data-name="Path 1222" d="M162.394,222.8a3.86,3.86,0,1,0,3.86,3.86A3.865,3.865,0,0,0,162.394,222.8Zm1.77,3.38-1.8,1.8a.594.594,0,0,1-.84,0l-.9-.9a.594.594,0,1,1,.84-.84l.48.48,1.38-1.38a.594.594,0,1,1,.84.84Z" transform="translate(-105.964 -213.976)" fill="#fff"/>
    <path id="Path_1223" data-name="Path 1223" d="M60.566,6.279a2.187,2.187,0,0,1-2.185-2.185V0h-8A2.187,2.187,0,0,0,48.2,2.185V18.093a2.187,2.187,0,0,0,2.185,2.185h12.09a2.187,2.187,0,0,0,2.185-2.185V6.279ZM56.43,17.733a5.048,5.048,0,1,1,5.048-5.048A5.054,5.054,0,0,1,56.43,17.733Z" fill="#fff"/>
  </g>
</svg>
